<?xml version="1.0" encoding="UTF-8" standalone="no"?>
<!-- Created with Inkscape (http://www.inkscape.org/) -->

<svg
   width="1000"
   height="1000"
   viewBox="0 0 1000 1000"
   version="1.1"
   id="svg3031"
   xml:space="preserve"
   inkscape:version="1.2.2 (b0a8486541, 2022-12-01)"
   inkscape:export-filename="bitmap.png"
   inkscape:export-xdpi="96"
   inkscape:export-ydpi="96"
   sodipodi:docname="favicon.svg"
   xmlns:inkscape="http://www.inkscape.org/namespaces/inkscape"
   xmlns:sodipodi="http://sodipodi.sourceforge.net/DTD/sodipodi-0.dtd"
   xmlns="http://www.w3.org/2000/svg"
   xmlns:svg="http://www.w3.org/2000/svg"><sodipodi:namedview
     id="namedview3033"
     pagecolor="#ffffff"
     bordercolor="#000000"
     borderopacity="0.25"
     inkscape:showpageshadow="2"
     inkscape:pageopacity="0.0"
     inkscape:pagecheckerboard="0"
     inkscape:deskcolor="#d1d1d1"
     inkscape:document-units="mm"
     showgrid="true"
     inkscape:zoom="0.18930626"
     inkscape:cx="-116.2138"
     inkscape:cy="493.90866"
     inkscape:window-width="1230"
     inkscape:window-height="651"
     inkscape:window-x="0"
     inkscape:window-y="0"
     inkscape:window-maximized="1"
     inkscape:current-layer="layer1"><inkscape:grid
       type="xygrid"
       id="grid3164" /></sodipodi:namedview><defs
     id="defs3028" /><g
     inkscape:label="Layer 1"
     inkscape:groupmode="layer"
     id="layer1"><g
       id="g9340"
       transform="matrix(1.25,0,0,1.25,1400,425)"><circle
         style="fill:#000004;fill-opacity:1;stroke:none;stroke-width:7.14286;stroke-linecap:round;stroke-dasharray:none;stroke-opacity:1"
         id="path6456"
         cx="-720"
         cy="60"
         r="400" /><path
         id="path3220"
         style="fill:#ffffff;fill-opacity:1;stroke:none;stroke-width:5;stroke-linecap:round;stroke-dasharray:none;stroke-opacity:1"
         d="m -720,-240 c -137.59731,0 -212.66929,46.03507 -251.74414,100.38086 43.80909,5.09675 87.99179,8.54188 132.49219,10.57617 C -834.90589,-157.9502 -810.15632,-180 -780,-180 h 120 c 29.44047,0 53.75581,21.00667 58.93945,48.90039 43.48678,-2.55628 87.21505,-6.1982 131.16407,-10.8418 C -509.43186,-195.27415 -584.3579,-240 -720,-240 Z m 288.99805,201.148438 C -487.43119,-32.439769 -543.78437,-27.559409 -600,-24.376953 V -20 c 0,33.239967 -26.76003,60 -60,60 h -120 c -33.23997,0 -60,-26.760033 -60,-60 v -2.302734 c -56.69753,-2.4487 -113.14965,-7.072505 -169.2676,-14.285157 -0.4755,5.743333 -0.7324,11.309518 -0.7324,16.587891 0,79.9996 30,120 30,120 0,0 -15,20.00021 -15,65 0,44.99979 45.0003,90 105,90 0,104.99949 15.00075,120 170,120 154.99925,0 170,-15.00051 170,-120 59.9997,0 105,-45.00021 105,-90 0,-44.99979 -15,-65 -15,-65 0,0 30,-40.0004 30,-120 0,-5.953386 -0.39045,-12.316039 -1.00195,-18.851562 z M -880,70 c 39.99984,0 130,30.00016 130,70 0,39.99984 -30.00024,80 -90,80 -59.99976,0 -88.44887,-45.805 -90,-80 -1.55113,-34.195 10.00016,-70 50,-70 z m 315,0 c 39.99988,0 51.55113,35.80497 50,70 -1.55113,34.19503 -30.00018,80 -90,80 -59.99982,0 -90,-40.00012 -90,-80 0,-39.99988 90.00012,-70 130,-70 z m -155,150 c 16.23369,1.31706 50,20.00015 50,50 0,29.99985 -10.00005,40 -25,40 -14.99995,0 -25,-10 -25,-10 0,0 -10.00005,10 -25,10 -14.99995,0 -25,-10.00015 -25,-40 0,-29.99985 33.76631,-48.68294 50,-50 z" /><circle
         style="fill:#ffffff;fill-opacity:1;stroke:none;stroke-width:1.00157;stroke-linecap:round;stroke-dasharray:none;stroke-opacity:1"
         id="path8606"
         cx="-720"
         cy="-70"
         r="60" /></g></g></svg>
