<?xml version="1.0" encoding="UTF-8"?>
<!-- Created with Inkscape (http://www.inkscape.org/) -->
<svg width="1e3" height="1e3" version="1.1" viewBox="0 0 1e3 1e3" xml:space="preserve" xmlns="http://www.w3.org/2000/svg"><g transform="matrix(1.25,0,0,1.25,1400,425)"><circle cx="-720" cy="60" r="400" fill="#000004"/><path d="m-720-240c-137.6 0-212.67 46.035-251.74 100.38 43.809 5.0968 87.992 8.5419 132.49 10.576 4.3461-28.907 29.096-50.957 59.252-50.957h120c29.44 0 53.756 21.007 58.939 48.9 43.487-2.5563 87.215-6.1982 131.16-10.842-39.535-53.333-114.46-98.059-250.1-98.059zm289 201.15c-56.429 6.4118-112.78 11.292-169 14.475v4.377c0 33.24-26.76 60-60 60h-120c-33.24 0-60-26.76-60-60v-2.3027c-56.698-2.4487-113.15-7.0725-169.27-14.285-0.4755 5.7433-0.7324 11.31-0.7324 16.588 0 80 30 120 30 120s-15 20-15 65 45 90 105 90c0 105 15.001 120 170 120s170-15.001 170-120c60 0 105-45 105-90s-15-65-15-65 30-40 30-120c0-5.9534-0.39045-12.316-1.002-18.852zm-449 108.85c40 0 130 30 130 70s-30 80-90 80-88.449-45.805-90-80 10-70 50-70zm315 0c40 0 51.551 35.805 50 70s-30 80-90 80-90-40-90-80 90-70 130-70zm-155 150c16.234 1.3171 50 20 50 50s-10 40-25 40-25-10-25-10-10 10-25 10-25-10-25-40 33.766-48.683 50-50z" fill="#fff"/><circle cx="-720" cy="-70" r="60" fill="#fff"/></g></svg>
