<?xml version="1.0" encoding="UTF-8" standalone="no"?>
<!-- Created with Inkscape (http://www.inkscape.org/) -->

<svg
   width="1000"
   height="1000"
   viewBox="0 0 1000 1000"
   version="1.1"
   id="svg3031"
   xml:space="preserve"
   xmlns="http://www.w3.org/2000/svg"
   xmlns:svg="http://www.w3.org/2000/svg"><defs
     id="defs3028" /><g
     id="layer1"><path
       id="path3220"
       style="fill:#ffffff;fill-opacity:1;stroke:none;stroke-width:8.13008;stroke-linecap:round;stroke-dasharray:none;stroke-opacity:1"
       d="M 500,0 C 276.26453,0 154.19628,74.853776 90.659942,163.2209 c 71.234288,8.28741 143.076068,13.88924 215.434438,17.19704 7.06677,-47.00363 47.30997,-82.856964 96.34465,-82.856964 h 195.12194 c 47.87069,0 87.40782,34.157194 95.8365,79.512834 C 764.1077,172.91726 835.21056,166.99543 906.6724,159.44487 842.38723,72.724956 720.55627,0 500,0 Z m 469.91552,327.07063 c -91.75486,10.42568 -183.38603,18.36123 -274.79356,23.53595 v 7.117 c 0,54.04873 -43.51225,97.56097 -97.56098,97.56097 H 402.43903 c -54.04873,0 -97.56098,-43.51224 -97.56098,-97.56097 v -3.74429 C 212.68694,349.99767 120.89488,342.47928 29.646179,330.7514 c -0.773177,9.33875 -1.190894,18.38945 -1.190894,26.97218 0,130.08065 48.780488,195.12195 48.780488,195.12195 0,0 -24.390244,32.52066 -24.390244,105.69106 0,73.17039 73.171231,146.34146 170.731701,146.34146 C 223.57723,975.60892 247.9687,1000 500,1000 c 252.03129,0 276.42277,-24.39108 276.42277,-195.12195 97.56048,0 170.73171,-73.17107 170.73171,-146.34146 0,-73.1704 -24.39026,-105.69106 -24.39026,-105.69106 0,0 48.78049,-65.0413 48.78049,-195.12195 0,-9.6803 -0.63486,-20.02608 -1.62919,-30.65295 z M 239.8374,504.06504 c 65.04039,0 211.38211,48.78075 211.38211,113.82114 0,65.04039 -48.78088,130.0813 -146.34146,130.0813 -97.56058,0 -143.8193,-74.47968 -146.34146,-130.0813 -2.52216,-55.60163 16.26042,-113.82114 81.30081,-113.82114 z m 512.19512,0 c 65.04045,0 83.82298,58.21946 81.30081,113.82114 -2.52216,55.60168 -48.78079,130.0813 -146.34146,130.0813 -97.56069,0 -146.34147,-65.04085 -146.34147,-130.0813 0,-65.04046 146.34166,-113.82114 211.38212,-113.82114 z M 500,747.96748 c 26.39624,2.14155 81.30081,32.52057 81.30081,81.30081 0,48.78024 -16.26024,65.04065 -40.65041,65.04065 -24.39016,0 -40.6504,-16.26016 -40.6504,-16.26016 0,0 -16.26025,16.26016 -40.65041,16.26016 -24.39017,0 -40.65041,-16.26041 -40.65041,-65.04065 0,-48.78024 54.90457,-79.15926 81.30082,-81.30081 z" /><circle
       style="fill:#ffffff;fill-opacity:1;stroke:none;stroke-width:1.62857;stroke-linecap:round;stroke-dasharray:none;stroke-opacity:1"
       id="path8606"
       cx="500"
       cy="276.42276"
       r="97.560974" /></g></svg>
